<svg width="1922" height="1082" viewBox="0 0 1922 1082" fill="none" xmlns="http://www.w3.org/2000/svg">
<rect width="1920" height="1080" fill="white"/>
<path d="M1539.34 767.476L1611.08 906.571L1695 776.787L1539.34 767.476ZM1526.74 759.256L1708.16 770.108L1610.36 921.37L1526.74 759.256Z" fill="#FFD029"/>
<path d="M1811.99 1076.28C1869.74 1076.28 1916.55 1029.25 1916.55 971.231C1916.55 913.216 1869.74 866.186 1811.99 866.186C1754.25 866.186 1707.43 913.216 1707.43 971.231C1707.43 1029.25 1754.25 1076.28 1811.99 1076.28Z" stroke="#FF9100" stroke-width="10"/>
<path d="M1659.23 711.227C1667.42 711.227 1674.06 704.556 1674.06 696.327C1674.06 688.098 1667.42 681.427 1659.23 681.427C1651.04 681.427 1644.4 688.098 1644.4 696.327C1644.4 704.556 1651.04 711.227 1659.23 711.227Z" fill="#FF9100"/>
<path d="M1896.89 711.466L1811.7 649.262L1749.78 734.846L1834.97 797.05L1896.89 711.466Z" stroke="#7331C7" stroke-width="10.0011"/>
<path d="M1399.58 898.501L1523.22 995.552" stroke="#D1C7FF" stroke-width="10" stroke-linecap="round"/>
<path d="M1453.17 877.343L1574.32 972.956" stroke="#D1C7FF" stroke-width="10" stroke-linecap="round"/>
<path d="M1381.73 942.016L1503.45 1037.56" stroke="#D1C7FF" stroke-width="10" stroke-linecap="round"/>
<path d="M1737.03 863.763L1743.7 834.738L1714.81 828.033L1708.14 857.058L1737.03 863.763Z" fill="#FFD029"/>
<path d="M1528.51 851.67L1533.52 881.413L1505.64 871.221L1528.51 851.67Z" fill="#7331C7"/>
<path d="M1539.34 767.476L1611.08 906.571L1695 776.787L1539.34 767.476ZM1526.74 759.256L1708.16 770.108L1610.36 921.37L1526.74 759.256Z" fill="#FFD029"/>
<path d="M1811.99 1076.28C1869.74 1076.28 1916.55 1029.25 1916.55 971.231C1916.55 913.216 1869.74 866.186 1811.99 866.186C1754.25 866.186 1707.43 913.216 1707.43 971.231C1707.43 1029.25 1754.25 1076.28 1811.99 1076.28Z" stroke="#FF9100" stroke-width="10"/>
<path d="M1659.23 711.227C1667.42 711.227 1674.06 704.556 1674.06 696.327C1674.06 688.098 1667.42 681.427 1659.23 681.427C1651.04 681.427 1644.4 688.098 1644.4 696.327C1644.4 704.556 1651.04 711.227 1659.23 711.227Z" fill="#FF9100"/>
<path d="M1896.89 711.466L1811.7 649.262L1749.78 734.846L1834.97 797.05L1896.89 711.466Z" stroke="#7331C7" stroke-width="10.0011"/>
<path d="M1399.58 898.501L1523.22 995.552" stroke="#D1C7FF" stroke-width="10" stroke-linecap="round"/>
<path d="M1453.17 877.343L1574.32 972.956" stroke="#D1C7FF" stroke-width="10" stroke-linecap="round"/>
<path d="M1381.73 942.016L1503.45 1037.56" stroke="#D1C7FF" stroke-width="10" stroke-linecap="round"/>
<path d="M1737.03 863.763L1743.7 834.738L1714.81 828.033L1708.14 857.058L1737.03 863.763Z" fill="#FFD029"/>
<path d="M1528.51 851.67L1533.52 881.413L1505.64 871.221L1528.51 851.67Z" fill="#7331C7"/>
<path d="M1539.34 767.476L1611.08 906.571L1695 776.787L1539.34 767.476ZM1526.74 759.256L1708.16 770.108L1610.36 921.37L1526.74 759.256Z" fill="#FFD029"/>
<path d="M1659.23 711.227C1667.42 711.227 1674.06 704.556 1674.06 696.327C1674.06 688.098 1667.42 681.427 1659.23 681.427C1651.04 681.427 1644.4 688.098 1644.4 696.327C1644.4 704.556 1651.04 711.227 1659.23 711.227Z" fill="#FF9100"/>
<path d="M1399.58 898.501L1523.22 995.552" stroke="#D1C7FF" stroke-width="10" stroke-linecap="round"/>
<path d="M1453.17 877.343L1574.32 972.956" stroke="#D1C7FF" stroke-width="10" stroke-linecap="round"/>
<path d="M1381.73 942.016L1503.45 1037.56" stroke="#D1C7FF" stroke-width="10" stroke-linecap="round"/>
<path d="M1737.03 863.763L1743.7 834.738L1714.81 828.033L1708.14 857.058L1737.03 863.763Z" fill="#FFD029"/>
<path d="M1528.51 851.67L1533.52 881.413L1505.64 871.221L1528.51 851.67Z" fill="#7331C7"/>
</svg>
